<svg viewBox="0 0 460 100" xmlns="http://www.w3.org/2000/svg"><defs><filter id="a" color-interpolation-filters="sRGB"><feFlood flood-color="#2D2A32" flood-opacity=".502" result="flood"/><feComposite in="flood" in2="SourceGraphic" operator="in" result="composite1"/><feGaussianBlur in="composite1" result="blur" stdDeviation=".5"/><feOffset dx="1.5" dy="2.5" result="offset"/><feComposite in="SourceGraphic" in2="offset" result="composite2"/></filter></defs><g transform="translate(6.122 5.224) scale(.8955)" filter="url(#a)" stroke-linecap="square" stroke-linejoin="bevel" stroke-width="64.77" paint-order="stroke fill markers"><path d="M50.01 0C50 6.668 50 13.333 50.005 20.001h16.672V0zm126.77 0h-33.34v20.002h16.667v-3.334c3.921.06 7.848-.03 11.77-.025 2.353.003 4.706.04 7.053.165 2.869.319 5.557 1.473 7.822 3.193h20.56c-3.258-7.374-9.142-13.603-16.549-16.923A33.364 33.364 0 00176.774 0zm98.457 0l5.358 20.001h16.667L291.904 0zm53.581 0l-5.358 20.001h27.386L345.488 0zM382.4 0l-5.358 20.001h16.667L399.067 0zm21.668 0v20.001h16.667V0zm21.533 0v16.667h48.104l-1.924 3.334h16.667c3.85-6.668 7.7-13.333 11.547-20.001zm-320.43.002C92.454-.143 80.118 7.744 74.9 19.35c-.105.216-.201.434-.3.652h20.594c2.831-2.128 6.319-3.386 9.962-3.33 3.61-.07 7.11 1.193 9.96 3.33h20.59C132.2 12.07 125.614 5.486 117.462 2.356A33.353 33.353 0 00105.16.003zm142.063 0c-11.973-.144-23.554 7.462-28.18 18.509-.226.491-.428.99-.618 1.491h17.826c2.683-2.736 6.345-4.516 10.232-4.627.247-.012.493-.019.74-.019 4.139-.082 8.116 1.739 10.976 4.647h17.813c-3.196-8.473-10.195-15.506-18.866-18.353a30.722 30.722 0 00-9.922-1.647z" fill="#fb5012"/><path d="M50.01 20.001c.004 6.668.007 13.333.008 20.001h16.665v-20zm24.546 0c-2.458 5.443-3.019 11.508-2.778 17.421v2.58h16.649c-.014-2.945.003-5.888.16-8.822.518-4.514 3.032-8.523 6.564-11.18zm40.51 0c3.298 2.475 5.721 6.123 6.42 10.243.444 3.228.329 6.496.276 9.758h16.664c-.008-2.834-.02-5.668-.034-8.499-.174-3.982-1.134-7.882-2.734-11.502zm28.392 0v20.001h16.667v-20zm43.315 0c3.85 2.924 6.475 7.486 6.663 12.386.2 2.63-.314 5.242-1.373 7.615h17.41a31.09 31.09 0 00.656-6.535c.072-4.647-.933-9.246-2.796-13.466zm31.593 0c-1.843 4.856-2.084 10.148-1.908 15.3.01 1.567.013 3.135.012 4.701h15.326c-.01-3.672.003-7.348.112-11.015.317-3.413 1.918-6.573 4.283-8.986zm39.77 0c2.196 2.232 3.736 5.104 4.18 8.25.368 3.9.196 7.83.175 11.751h15.392c0-3.91-.024-7.824-.113-11.732a28.961 28.961 0 00-1.82-8.27zm22.451 0c1.787 6.668 3.572 13.333 5.36 20.001h16.668c-1.786-6.668-3.572-13.333-5.36-20zm42.865 0l-5.358 20.001h16.667l2.385-8.9 2.386 8.9h16.667l-5.358-20zm53.582 0l-5.358 20.001h16.667l5.358-20zm27.015 0v20.001h16.668v-20zm67.738 0c-3.85 6.668-7.7 13.333-11.547 20.001h16.667l11.547-20z" fill="#01fdf6"/><path d="M50.01 40.008c0 6.667-.003 13.333-.024 20h16.688v-20zm21.76 0v20h66.68c0-6.667-.001-13.333-.021-20h-16.665a81.288 81.288 0 00.014 4.151v5.85h-33.34c.052-3.33-.004-6.668-.02-10.001zm71.68 0v20h53.37c6.427-4.86 11.018-12.107 12.65-20h-17.41c-2.08 4.662-6.271 8.4-11.328 9.528-4.387.937-8.922.272-13.37.472h-7.237v-10zm73.03 0c-.002 6.667-.073 13.335.015 20h15.28c-.01-2.429.178-4.884.046-7.284.038-4.236-.003-8.478-.014-12.716zm46.014 0a92.75 92.75 0 00.023 3.03c-.068 5.654.086 11.319-.021 16.97h15.426a39.014 39.014 0 00-.051-1.727c-.04-6.091.016-12.182.015-18.273zm23.454 0l5.358 20h16.667l-5.358-20zm32.149 0l-5.358 20h16.667l5.358-20zm21.438 0l5.358 20h16.667l-5.358-20zm32.149 0l-5.359 20h16.668a73976.53 73976.53 0 015.36-20zm32.387 0v20h16.667v-20zm56.174 0l-11.547 20h16.667c3.85-6.667 7.7-13.333 11.547-20zm-208.61 16.577l-3.424 3.424h6.848l-3.424-3.424z" fill="#cbbaed"/><path d="M49.983 60.011a3529.03 3529.03 0 01-.033 7.97c-.281 4.776-2.876 9.179-6.633 12.029h20.557c2.076-4.776 3.066-10.034 2.8-15.25v-4.75zm21.782 0v20.001h16.667V66.68h33.34v13.333h16.664c.004-6.668.007-13.333.008-20zm71.68 0v20.001h16.667V66.68h15.379l7.697 13.333h16.667c-3.13-5.424-6.263-10.848-9.393-16.27a31.234 31.234 0 006.347-3.73zm73.03 0c.016 1.285.038 2.569.069 3.853.397 5.871 2.656 11.5 6.2 16.148h52.337l-2.049-2.049c3.485-5.3 4.95-11.658 4.885-17.953H262.49a154.59 154.59 0 01-.092 3.268 15.379 15.379 0 01-.772 3.281l-6.548-6.549h-6.848l-7.433 7.433 9.09 9.089c-7.158 1.44-14.88-3.03-17.195-9.954-.75-2.129-.927-4.337-.936-6.568zm74.828 0l5.359 20.001h27.386l5.358-20h-16.667l-2.385 8.9-2.386-8.9zm53.582 0l5.358 20.001h27.386l5.358-20H366.32l-2.385 8.9-2.385-8.9zm59.191 0v20.001h16.667v-20zm44.638 0c-3.85 6.668-7.7 13.333-11.547 20.001h16.667l11.547-20zM-.048 66.684c-.052 4.6.95 9.148 2.795 13.328h20.57c-2.803-2.085-4.978-5.011-5.957-8.414-.49-1.588-.74-3.25-.74-4.914z" fill="#e9df00"/><path d="M2.797 80.015c3.257 7.38 9.144 13.611 16.556 16.934 4.326 2.06 9.078 3.065 13.838 3.067 7.93.006 15.876-2.765 21.872-8.036 3.84-3.241 6.83-7.385 8.82-11.965H43.325c-2.362 1.793-5.181 2.974-8.177 3.244-4.193.538-8.438-.754-11.785-3.244zm68.981 0v20.001h16.667V80.015zm50.01 0v20.001h16.667c-.01-6.668-.008-13.333-.004-20.001zm21.675 0v20.001h16.668V80.015zm39.743 0c3.85 6.668 7.7 13.333 11.548 20.001h16.667c-3.85-6.668-7.7-13.333-11.547-20.001zm39.558 0c3.665 4.81 8.705 8.576 14.49 10.473 7.996 2.773 17.122 2.007 24.547-2.058l11.586 11.587 10.857-10.857-9.145-9.144zm73.903 0c1.786 6.668 3.572 13.333 5.36 20.001h16.668l5.358-20.001zm53.581 0l5.359 20.001h16.667l5.358-20.001zm53.82 0v20.001h16.667V80.015zm33.075 0l-11.547 20.001H500V83.35h-48.104l1.925-3.334z" fill="#03fcba"/></g></svg>