<svg viewBox="0 0 105.8 31.75" xmlns="http://www.w3.org/2000/svg"><defs><filter id="a" y="-.2" height="1.4" color-interpolation-filters="sRGB"><feFlood flood-color="#34394A" flood-opacity=".459" result="flood"/><feComposite in="flood" in2="SourceGraphic" operator="in" result="composite1"/><feGaussianBlur in="composite1" result="blur" stdDeviation=".5"/><feOffset dx="1.5" dy="2.5" result="offset"/><feComposite in="SourceGraphic" in2="offset" result="composite2"/></filter></defs><g stroke-width=".532"><path d="M84.39 4.674v.001c-1.652-.024-3.108 1.531-2.968 3.18.031.972.582 1.898 1.399 2.42H81.65v6.95c-.284.32-.673.599-.894.946v4.881h20.65l-2.39-5.068h-2.513c1.753-2.57 3.508-5.139 5.26-7.709h-6.75c-.3-.262-.556-.63-.882-.83h-3.992l-2.872 5.878h4.953l-5.015 7.37v-12.42c-.362-.008-.837.015-1.13-.013 1.201-.75 1.749-2.375 1.192-3.686-.469-1.13-1.64-1.949-2.879-1.902zm-77.22.447l-.29.604-2.776 5.784h6.185c-.01 1.827.021 3.656-.016 5.482-.138.523-.762.765-1.256.8-1.025.012-1.697-.873-2.46-1.417-.193.058-.288.554-.444.776L4.07 21.381c.912.72 1.9 1.39 3.05 1.656 2.49.64 5.372.158 7.274-1.647a5.798 5.798 0 001.838-3.961c.044-3.236.007-6.474.019-9.711V6.015H12.78c-.064-.27.133-.8-.106-.895zM69.1 9.38l-.892 1.385-2.07 3.212c-.666-1.234-1.332-2.468-2.001-3.702-3.763-.008-7.531.018-11.29-.012-2.195-.54-4.721-.22-6.472 1.297-2.032 1.683-2.748 4.622-2.011 7.113.645 2.405 2.846 4.265 5.313 4.55.82.117 1.658.114 2.477-.01v3.865h5.474v-11.04c.27-.314.644-.586.851-.925V10.86c2.526 4.516 5.053 9.03 7.58 13.55 1.018-1.812 2.034-3.625 3.05-5.437 1.024 1.812 2.047 3.625 3.072 5.436l4.687-8.425c.41-.14.893-.191 1.262-.386.98-1.77 1.959-3.543 2.94-5.313h-7.024l-1.965 3.696-2.978-4.593zm-30.25.624c-.628.006-1.242.158-1.851.271h-4.655v6.983c-.285.315-.673.586-.894.928v4.866h6.409v-7.635c.5-.064 1.02-.417 1.519-.199.24.318.204.779.335 1.15l.217.956 4.902-4.486c-.767-.882-1.567-1.8-2.677-2.251-1.031-.468-2.181-.617-3.304-.583zm-15.26.022a9.568 9.568 0 00-.584.002v-.001c-2.051.036-4.093 1.006-5.294 2.69-1.434 1.977-1.567 4.745-.554 6.933.933 2.015 2.983 3.419 5.187 3.626a8.768 8.768 0 003.166-.224h5.515v-4.92l-.894-.873v-6.983c-1.603-.008-3.21.018-4.81-.013a7.72 7.72 0 00-1.732-.237zm-.285 5.128a2.53 2.53 0 01.277.01c.366.044.742.125 1.056.328v2.367c-.645.214-1.441.584-2.058.102-.633-.658-.646-1.848-.035-2.526.2-.208.48-.274.76-.281zm27.81.01c.36.043.73.12 1.035.325v2.396c-.645.189-1.457.535-2.047.032-.631-.703-.613-1.98.13-2.598.256-.179.585-.173.883-.155z" fill="#d8dcdf" filter="url(#a)"/><path d="M84.44 5.739c-.54 0-1.001.192-1.384.575a1.886 1.886 0 00-.575 1.384c0 .54.192 1.008.575 1.406.383.383.845.575 1.384.575.54 0 1.001-.192 1.384-.575.398-.397.597-.866.597-1.406 0-.54-.2-1.001-.597-1.384a1.886 1.886 0 00-1.384-.575zm-76.6.447l-2.044 4.26h5.558v6.388c0 .625-.263 1.122-.788 1.491-.511.355-1.03.532-1.554.532-.767 0-1.476-.283-2.13-.851l-1.47 3.045c1.023.795 2.329 1.193 3.919 1.193a6.91 6.91 0 002.747-.575 5.276 5.276 0 002.215-1.768c.596-.795.894-1.803.894-3.024V7.08h-3.471v-.894zM90.8 10.51l-1.831 3.747h5.26l-5.26 7.73h10.75l-1.385-2.938h-3.855l5.26-7.709h-5.175l-.83-.83zm-51.64.553c-.78 0-1.498.12-2.151.362l1.257 2.79c.241-.07.475-.12.702-.148.908.014 1.44.426 1.597 1.235l2.769-2.534c-.966-1.136-2.357-1.704-4.174-1.704zm-15.82.022c-1.689 0-3.073.518-4.152 1.555-1.079 1.036-1.619 2.377-1.619 4.024a5.84 5.84 0 00.681 2.79 5.365 5.365 0 001.981 2.044c.866.511 1.902.768 3.11.768.808 0 1.526-.114 2.15-.342l-1.257-2.812c-.255.1-.553.15-.894.15-.724 0-1.291-.248-1.703-.745-.398-.511-.597-1.13-.597-1.853 0-.71.2-1.312.597-1.81.412-.51.98-.767 1.703-.767.454 0 .894.079 1.32.235.441.156.788.397 1.044.724v6.942h4.259V18.58l-.894-.872V11.34h-3.386v.15c-.71-.27-1.491-.405-2.343-.405zm27.53 0c-1.207 0-2.236.255-3.088.766a5.206 5.206 0 00-1.959 2.044c-.454.838-.681 1.76-.681 2.768 0 1.022.227 1.96.681 2.812a5.41 5.41 0 001.981 2.022c.866.497 1.888.746 3.066.746.795 0 1.505-.114 2.13-.341l-1.257-2.79a2.632 2.632 0 01-.872.128c-.724 0-1.285-.248-1.682-.745-.398-.497-.597-1.108-.597-1.832 0-.71.2-1.312.597-1.809.397-.51.958-.767 1.682-.767.454 0 .893.079 1.32.235.426.156.766.397 1.022.724v10.97h3.344v-10.41l.851-.873v-3.387h-4.216v.15c-.695-.27-1.469-.405-2.32-.405zm-17.46.255v6.368l-.894.873v3.406h4.28v-10.65zm26.56 0l6.09 10.88 3.045-5.431 3.067 5.43 3.981-7.155 1.235-.34 1.874-3.387h-4.578l-2.512 4.728-3.067-4.728-3.045 4.728-2.556-4.728zm22.74 0v6.325l-.894.894v3.428h4.322v-10.65z" fill="#475864"/></g></svg>