<svg width="14em" height="14em" viewBox="0 0 100 100" xmlns="http://www.w3.org/2000/svg"><g stroke-width="0" paint-order="stroke fill markers"><path d="M31.83.008c-1.722.016-2.94 1.666-3.087 3.269-.908 3.645-2.102 7.267-2.777 10.98.257 2.157 1.869 3.764 2.749 5.672 2.16 3.868 4.607 7.595 6.464 11.62.734 2.943-1.406 6.306-4.474 6.652-2.189.305-4.509-.788-5.624-2.706-1.656-1.871-5.188-.655-5.48 1.785-.713 3.113-1.75 6.152-2.334 9.294.004 1.857 1.698 3.06 3.212 3.773a19.192 19.192 0 004.174 1.672c-3.301 1.528-6.307 3.603-9.499 5.335-4.761 2.757-9.55 5.47-14.26 8.317-1.8 1.616-.678 4.926 1.588 5.44 3.96.831 7.801 2.216 11.79 2.92 2.157-.256 3.763-1.87 5.671-2.748 3.862-2.158 7.583-4.601 11.6-6.458 3.094-.813 6.672 1.668 6.706 4.936.133 2.04-.95 4.096-2.714 5.13-1.844 1.6-.797 5.162 1.651 5.437 3.108.814 6.192 1.745 9.341 2.4 1.892.034 3.134-1.695 3.84-3.243a18.54 18.54 0 001.651-4.101c1.28 2.669 2.952 5.124 4.356 7.726 3.082 5.344 6.121 10.72 9.307 16 1.62 1.794 4.921.672 5.438-1.592.831-3.96 2.216-7.802 2.921-11.79-.256-2.157-1.87-3.764-2.749-5.672-2.152-3.834-4.553-7.542-6.432-11.52-.828-2.981 1.378-6.483 4.526-6.75 2.123-.267 4.385.732 5.462 2.614 1.54 1.878 5.041.94 5.472-1.442.76-3.222 1.85-6.374 2.412-9.634-.04-1.833-1.738-2.982-3.226-3.696a19.874 19.874 0 00-4.161-1.65c3.113-1.442 5.931-3.391 8.94-5.021 4.95-2.867 9.929-5.69 14.83-8.644 1.8-1.616.678-4.926-1.588-5.44-3.96-.832-7.801-2.216-11.79-2.921-2.157.256-3.764 1.87-5.671 2.749-3.868 2.16-7.594 4.607-11.62 6.465-2.943.734-6.306-1.406-6.651-4.474-.305-2.19.788-4.51 2.706-5.625 1.864-1.652.663-5.175-1.77-5.475-3.139-.71-6.198-1.777-9.369-2.343-1.849.016-3.001 1.73-3.722 3.22a19.335 19.335 0 00-1.66 4.177c-1.545-3.306-3.61-6.32-5.334-9.503-2.785-4.788-5.487-9.631-8.388-14.35-.632-.63-1.559-.843-2.426-.79zm17.26 38.2c2.423 5.254 7.254 9.32 12.83 10.85-5.277 2.409-9.477 7.182-10.98 12.81-2.388-5.294-7.239-9.383-12.83-10.92 5.308-2.378 9.413-7.238 10.93-12.85l.038.086z" fill="#253143"/><path d="M32 2.722l-3.091 11.54 8.277 14.34a8.445 8.446.015 010 8.446 8.445 8.446.015 01-7.314 4.223 8.445 8.446.015 01-7.143-3.94l-2.507 9.358a16.89 16.89.013 009.65 3.028 16.89 16.89.013 0014.63-8.446 16.89 16.89.013 000-16.89zm21.31 17.49a16.89 16.89.013 00-3.028 9.651 16.89 16.89.013 008.445 14.63 16.89 16.89.013 0016.89 0l21.65-12.5-11.54-3.092-14.34 8.278a8.445 8.446.015 01-8.445 0 8.445 8.446.015 01-4.223-7.315 8.445 8.446.015 013.939-7.143zM2.73 67.992l11.54 3.092 14.34-8.278a8.445 8.446.015 018.445 0 8.445 8.446.015 014.223 7.315 8.445 8.446.015 01-3.939 7.143l9.357 2.507a16.89 16.89.013 003.028-9.651 16.89 16.89.013 00-8.445-14.63 16.89 16.89.013 00-16.89 0zm58.91-15.44a16.89 16.89.013 00-6.147 6.162 16.89 16.89.013 000 16.89l12.5 21.65 3.091-11.54-8.277-14.34a8.445 8.446.015 010-8.446 8.445 8.446.015 017.314-4.223 8.445 8.446.015 017.142 3.94l2.507-9.358a16.89 16.89.013 00-9.65-3.028 16.89 16.89.013 00-8.481 2.284z" fill="#dc4850"/></g></svg>