<svg xmlns="http://www.w3.org/2000/svg" width="14em" height="14em" viewBox="0 0 100 100"><g paint-order="stroke fill markers"><path fill="#08090a" d="M31.04.003a3.41 3.41 0 00-.335.002c-2.176.45-3.85 2.042-5.834 2.942-1.409.85-2.023 2.832-1.112 4.259 1.098 2.039 2.325 4.006 3.45 6.032 3.776 6.579 7.662 13.1 11.28 19.77 1.216 3.341-1.23 7.364-4.82 7.682-2.357.319-4.799-.945-5.95-3.015-1.06-1.351-3.17-1.471-4.485-.427-1.584.996-3.35 1.748-4.774 2.972-1.182 1.355-.662 3.4.414 4.65 2.201 3.083 5.453 5.388 9.08 6.478-3.219 1.468-6.134 3.5-9.243 5.176-5.95 3.453-11.95 6.832-17.84 10.38-1.425 1.347-.91 3.632.216 4.994.968 1.487 1.565 3.354 3.057 4.438 1.62.884 3.406-.131 4.762-1.043 7.99-4.579 15.93-9.283 23.98-13.73 3.289-1.294 7.46 1.143 7.777 4.71.319 2.29-.799 4.741-2.841 5.877-1.217.92-1.758 2.738-.88 4.071.805 1.595 1.81 3.082 2.659 4.652.866 1.314 2.723 1.77 4.088.965 1.713-.904 3.148-2.28 4.413-3.728a17.435 17.435 0 003.213-6.008c1.235 2.659 2.919 5.075 4.306 7.653 3.749 6.464 7.427 12.97 11.27 19.38 1.347 1.425 3.633.909 4.996-.216 1.488-.968 3.355-1.565 4.439-3.056.884-1.62-.132-3.405-1.043-4.76-4.581-7.989-9.286-15.92-13.73-23.98-1.294-3.288 1.144-7.459 4.71-7.775 2.293-.319 4.744.798 5.88 2.84.92 1.216 2.74 1.758 4.072.88 1.63-.829 3.143-1.834 4.708-2.699 1.309-.897 1.713-2.787.864-4.136-.982-1.78-2.447-3.269-4.003-4.56a17.614 17.614 0 00-5.688-2.979c2.72-1.264 5.196-2.98 7.833-4.403 6.406-3.714 12.86-7.356 19.21-11.16 1.425-1.347.91-3.632-.215-4.994-.968-1.487-1.565-3.354-3.057-4.438-1.621-.884-3.406.132-4.761 1.043-7.995 4.58-15.93 9.285-23.99 13.73-3.281 1.281-7.423-1.135-7.771-4.68-.354-2.382.893-4.885 3-6.047 1.497-1.185 1.422-3.563.183-4.905-.95-1.505-1.62-3.267-2.936-4.51-1.185-.82-2.852-.672-3.928.263-3.348 2.134-5.828 5.536-6.982 9.322-1.258-2.712-2.974-5.177-4.39-7.805-3.712-6.4-7.36-12.84-11.15-19.19-.54-.577-1.316-.879-2.098-.913zm18.36 39.95l.132.293c2.058 4.33 5.963 7.76 10.55 9.17-4.464 2.009-8.062 5.948-9.488 10.65-2.01-4.463-5.983-8.004-10.66-9.452 4.467-2.007 8.015-5.978 9.465-10.66z"/><path fill="#f4f7f5" d="M25.99 5.55l14.43 25a8.659 8.661 90 010 8.659 8.659 8.661 90 01-7.5 4.329 8.659 8.661 90 01-7.502-4.329l-5 2.886a14.43 14.43 89.99 0012.5 7.216 14.43 14.43 89.99 0012.5-7.216 14.43 14.43 89.99 000-14.43l-14.43-25zm31.94 14.89a14.43 14.43 89.99 00-7.217 12.5 14.43 14.43 89.99 007.217 12.5 14.43 14.43 89.99 0014.43 0l25-14.43-2.887-4.999-25 14.43a8.659 8.661 90 01-8.661 0 8.659 8.661 90 01-4.331-7.499 8.659 8.661 90 014.33-7.499zM2.64 69.02l2.887 4.999 25-14.43a8.659 8.661 90 018.661 0 8.659 8.661 90 014.331 7.499 8.659 8.661 90 01-4.33 7.499l2.887 4.999a14.43 14.43 89.99 007.217-12.5 14.43 14.43 89.99 00-7.217-12.5 14.43 14.43 89.99 00-14.43 0zm57.19-16.35a14.43 14.43 89.99 00-5.253 5.264 14.43 14.43 89.99 000 14.43l14.43 25 5-2.886-14.43-25a8.659 8.661 90 010-8.659 8.659 8.661 90 017.5-4.329 8.659 8.661 90 017.502 4.329l5-2.886a14.43 14.43 89.99 00-12.5-7.216 14.43 14.43 89.99 00-7.248 1.951z"/></g></svg>