<svg viewBox="0 0 100 100" width="16em" height="16em" xmlns="http://www.w3.org/2000/svg"><g stroke-width="0" paint-order="stroke fill markers"><path d="M32.25 0l-4.393 16.39 8.264 14.31a6.027 6.027 0 010 6.02 6.023 6.023 0 01-5.211 3.01 6.02 6.02 0 01-5.09-2.809l-2.432-3.854-3.92 14.63 1.148.799c2.746 1.91 5.984 2.893 9.311 3.078-1.805.389-3.575.968-5.221 1.918l-24.7 14.26 16.39 4.393 14.31-8.264a6.027 6.027 0 016.02 0 6.023 6.023 0 013.01 5.21 6.02 6.02 0 01-2.809 5.09l-3.854 2.433 14.63 3.92.799-1.148c1.908-2.741 2.89-5.975 3.078-9.297.39 1.8.97 3.565 1.918 5.207l14.26 24.7 4.393-16.39-8.264-14.31a6.027 6.027 0 010-6.02 6.023 6.023 0 015.21-3.01 6.02 6.02 0 015.09 2.809l2.433 3.854 3.92-14.63-1.148-.799c-2.744-1.91-5.98-2.892-9.303-3.078 1.802-.39 3.569-.969 5.213-1.918l24.7-14.26-16.39-4.393-14.31 8.264a6.027 6.027 0 01-6.02 0 6.023 6.023 0 01-3.01-5.211 6.02 6.02 0 012.809-5.09l3.854-2.432-14.63-3.92-.799 1.148c-1.908 2.741-2.89 5.975-3.078 9.297-.39-1.8-.97-3.565-1.918-5.207zm16.54 34.76c1.076 4.882 4.064 9.185 8.496 11.74 2.472 1.427 5.205 2.116 7.959 2.277-1.811.398-3.574.987-5.191 1.926a18.01 18.01 0 00-6.557 6.57c-1.427 2.471-2.115 5.203-2.277 7.955-1.076-4.882-4.064-9.185-8.496-11.74-2.474-1.429-5.212-2.117-7.971-2.277 4.888-1.073 9.198-4.059 11.76-8.496 1.426-2.471 2.115-5.203 2.277-7.955z" fill="#2c2c2c"/><path d="M32.93 5.163l-2.932 10.94 7.851 13.6a8.011 8.011 88.23 010 8.011 8.011 8.011 88.23 01-6.938 4.006 8.011 8.011 88.23 01-6.775-3.737l-2.378 8.876a16.02 16.02 88.47 009.154 2.872 16.02 16.02 88.47 0013.88-8.011 16.02 16.02 88.47 000-16.02zm20.21 16.59a16.02 16.02 88.47 00-2.872 9.154 16.02 16.02 88.47 008.011 13.88 16.02 16.02 88.47 0016.02 0l20.54-11.86-10.94-2.932-13.6 7.851a8.011 8.011 88.23 01-8.011 0 8.011 8.011 88.23 01-4.006-6.938 8.011 8.011 88.23 013.737-6.775zM5.16 67.073l10.94 2.932 13.6-7.851a8.011 8.011 88.23 018.011 0 8.011 8.011 88.23 014.006 6.938 8.011 8.011 88.23 01-3.737 6.775l8.876 2.378a16.02 16.02 88.47 002.872-9.154 16.02 16.02 88.47 00-8.011-13.88 16.02 16.02 88.47 00-16.02 0zm55.89-14.64a16.02 16.02 88.47 00-5.831 5.845 16.02 16.02 88.47 000 16.02l11.86 20.54 2.932-10.94-7.851-13.6a8.011 8.011 88.23 010-8.011 8.011 8.011 88.23 016.938-4.006 8.011 8.011 88.23 016.775 3.737l2.378-8.876a16.02 16.02 88.47 00-9.154-2.872 16.02 16.02 88.47 00-8.045 2.166z" fill="#bc5650"/></g></svg>