<svg width="16em" height="16em" viewBox="0 0 100 100" xmlns="http://www.w3.org/2000/svg" xmlns:xlink="http://www.w3.org/1999/xlink"><defs><linearGradient id="a"><stop stop-color="#ffa9e7" offset="0"/><stop stop-color="#ff84e8" offset="1"/></linearGradient><linearGradient id="d" x2="32.22" y1="41.94" y2="74.17" gradientUnits="userSpaceOnUse" xlink:href="#a"/><linearGradient id="f" x1="58.06" x2="25.83" y2="32.22" gradientUnits="userSpaceOnUse" xlink:href="#a"/><linearGradient id="e" x1="99.52" x2="67.45" y1="58.06" y2="25.99" gradientUnits="userSpaceOnUse" xlink:href="#a"/><linearGradient id="c" x1="41.94" x2="74.17" y1="100" y2="67.78" gradientUnits="userSpaceOnUse" xlink:href="#a"/><filter id="b" x="-.5" y="-.5" width="2" height="2" color-interpolation-filters="sRGB"><feFlood flood-color="#7F2CCB" result="flood"/><feComposite in="flood" in2="SourceGraphic" operator="in" result="composite1"/><feGaussianBlur in="composite1" result="blur" stdDeviation="2"/><feOffset result="offset"/><feComposite in="SourceGraphic" in2="offset" result="composite2"/></filter></defs><g stroke-width="0" paint-order="stroke fill markers"><path d="M37.706.1l-6.433 17.678 6.575 14.098a4.313 4.313 0 01-.374 4.286 4.314 4.314 0 01-3.9 1.819 4.306 4.306 0 01-3.45-2.317l-3.142-6.099-5.93 16.3 1.618 1.349a17.604 17.604 0 004.207 2.6c-.212.09-.423.182-.633.28L.088 62.288l17.678 6.432 14.098-6.573a4.313 4.313 0 014.287.375 4.314 4.314 0 011.818 3.9 4.306 4.306 0 01-2.316 3.45l-6.099 3.144 16.3 5.93 1.348-1.618a17.604 17.604 0 002.601-4.207c.09.212.181.423.279.633L62.277 99.91l6.433-17.678-6.573-14.098a4.313 4.313 0 01.374-4.287 4.312 4.312 0 013.9-1.818 4.314 4.314 0 013.45 2.316l3.142 6.097 5.93-16.3-1.618-1.348a17.604 17.604 0 00-4.207-2.6c.212-.09.423-.182.633-.28L99.897 37.72l-17.678-6.433-14.098 6.575a4.313 4.313 0 01-4.287-.374 4.314 4.314 0 01-1.819-3.9 4.306 4.306 0 012.316-3.45l6.1-3.142-16.3-5.93-1.348 1.618a17.604 17.604 0 00-2.601 4.207c-.09-.212-.181-.423-.279-.632L37.708.103zm12.359 40.669a17.63 17.63 0 009.155 9.307c-.223.093-.445.19-.665.293a17.63 17.63 0 00-8.642 8.859 17.598 17.598 0 00-9.153-9.306 17.57 17.57 0 007.607-6.137 17.634 17.634 0 001.699-3.019z" fill="#2a2d43"/><path d="M36.78 3.244L34.892 8.43l12.161 12.161-6.178-13.248-4.096-4.096zm-4.001 11l-1.284 3.527 1.977 4.238 41.754 41.754 1.887-5.183-44.347-44.347zm21.424 7.048l-1.261 1.514a17.338 17.338 0 00-1.527 2.143l10.753 10.754a4.49 4.49 0 011.61-5.46l-8.59-8.592-.985-.358zm13.45 4.895l1.334 1.334.966-.497-2.3-.837zM27.01 30.053l-.135.372.673.673-.538-1.045zm53.714 2.145l-4.82 2.249 9.713 9.713 4.823-2.248-9.716-9.717zm10.505 2.575l4.617 4.617 3.538-1.649-8.155-2.969zm-52.92.013a4.478 4.478 0 01-.676 1.49 4.507 4.507 0 01-3.037 1.868l9.613 9.613a17.348 17.348 0 003.572-3.498l-9.476-9.475zM24.76 36.239l-1.887 5.184L67.221 85.77l1.284-3.527-1.976-4.237-41.754-41.753zm45.723.729l-2.292 1.069a4.508 4.508 0 01-3.64.07L75.375 48.93l4.824-2.248-9.716-9.716zM24.576 51.077l-4.824 2.248 9.717 9.716 2.291-1.069a4.51 4.51 0 013.641-.07L24.577 51.077zm31.17 1.174a17.414 17.414 0 00-3.572 3.498l9.473 9.472a4.483 4.483 0 01.676-1.49 4.504 4.504 0 013.035-1.868l-9.613-9.613zm-41.41 3.596l-4.824 2.248 9.716 9.716 4.821-2.249-9.713-9.713zm-10.23 4.77L.57 62.267l8.155 2.97-4.617-4.618zm33.684 3.689a4.49 4.49 0 01-1.61 5.46l8.59 8.592.985.358 1.261-1.513a17.37 17.37 0 001.528-2.144L37.79 64.306zm34.61 4.601l.54 1.049.136-.373-.676-.676zm-41.41 3.58l-.965.498 2.299.836-1.334-1.334zm21.93 6.93l6.178 13.251 4.096 4.096 1.887-5.186-12.161-12.16z" fill="#414361"/><g transform="rotate(-24.999 61.994 31.194) scale(.8635)" filter="url(#b)"><path d="M58.82 58.06a16.91 16.91 46.38 00-8.415 2.266 16.91 16.91 46.38 00-8.457 14.65v25.03l8.457-8.457v-16.57a8.457 8.457 46.75 014.228-7.323 8.457 8.457 46.75 018.457 0 8.457 8.457 46.75 014.221 6.992l6.859-6.859a16.91 16.91 46.38 00-6.852-7.457 16.91 16.91 46.38 00-8.498-2.266z" fill="url(#c)"/><path d="M0 41.94l8.457 8.457h16.57a8.457 8.457 46.75 017.324 4.228 8.457 8.457 46.75 010 8.457 8.457 8.457 46.75 01-6.992 4.222l6.859 6.859a16.91 16.91 46.38 007.457-6.852 16.91 16.91 46.38 000-16.91 16.91 16.91 46.38 00-14.65-8.457z" fill="url(#d)"/><path d="M67.78 25.83a16.91 16.91 46.38 00-7.457 6.852 16.91 16.91 46.38 000 16.91 16.91 16.91 46.38 0014.65 8.457h25.03l-8.457-8.457h-16.57a8.457 8.457 46.75 01-7.324-4.228 8.457 8.457 46.75 010-8.457 8.457 8.457 46.75 016.992-4.222z" fill="url(#e)"/><path d="M58.06 0l-8.457 8.457v16.57a8.457 8.457 46.75 01-4.228 7.324 8.457 8.457 46.75 01-8.457 0 8.457 8.457 46.75 01-4.222-6.992l-6.859 6.859a16.91 16.91 46.38 006.852 7.457 16.91 16.91 46.38 0016.91 0 16.91 16.91 46.38 008.457-14.65z" fill="url(#f)"/></g></g></svg>