<svg width="16em" height="16em" viewBox="0 0 100 100" xmlns="http://www.w3.org/2000/svg"><defs><linearGradient id="a" x1="35.33" x2="64.67" y2="100" gradientTransform="translate(5.771 5.771) scale(.8846)" gradientUnits="userSpaceOnUse"><stop stop-color="#8ee476" offset="0"/><stop stop-color="#8be2e2" offset="1"/></linearGradient></defs><g paint-order="stroke fill markers"><g fill="#192725" color="#000"><path d="M38.386 3.458l-2.973.198-4.247 11.987v.891l6.71 14.066a5.478 5.478 0 01-.43 5.454 5.476 5.476 0 01-4.937 2.355 5.477 5.477 0 01-4.411-2.908l-.67-1.273-2.912.195-3.687 10.412.448 1.345.494.404c2.128 1.744 4.676 2.76 7.336 3.362-1.27.286-2.532.636-3.734 1.21L3.453 61.612l.198 2.973 11.987 4.247h.892l14.065-6.71a5.478 5.478 0 015.454.428 5.48 5.48 0 012.355 4.94 5.477 5.477 0 01-2.908 4.41l-1.273.67.196 2.911 10.411 3.687 1.345-.447.404-.494c1.744-2.127 2.76-4.675 3.362-7.334.286 1.267.637 2.53 1.21 3.732l10.456 21.92 2.973-.199 4.31-12.172-.146-.88-6.628-13.898a5.478 5.478 0 01.429-5.454 5.469 5.469 0 019.35.553l.67 1.272 2.912-.195 3.687-10.411-.448-1.345-.494-.404c-2.127-1.744-4.675-2.761-7.334-3.363 1.267-.285 2.53-.636 3.732-1.209l21.92-10.456-.199-2.973-11.986-4.247h-.892l-14.065 6.71a5.478 5.478 0 01-5.454-.43 5.476 5.476 0 01-2.355-4.937 5.477 5.477 0 012.908-4.411l1.273-.67-.196-2.912-10.411-3.687-1.345.448-.404.494c-1.744 2.127-2.761 4.675-3.362 7.334-.286-1.267-.637-2.53-1.21-3.732zm-1.057 8.124l7.495 15.71a13.176 13.176 0 01-1.033 13.128 13.178 13.178 0 01-11.889 5.668c-2.177-.17-4.2-1.005-6.025-2.18l1.097-3.094c1.49 1.132 3.255 1.886 5.183 2.039a9.906 9.906 0 008.952-4.271 9.914 9.914 0 00.777-9.89l-6.095-12.783zm18.762 14.304l3.095 1.097c-1.132 1.49-1.887 3.255-2.04 5.183a9.906 9.906 0 004.272 8.952 9.914 9.914 0 009.89.777L84.09 35.8l4.325 1.53-15.71 7.495a13.176 13.176 0 01-13.128-1.033 13.178 13.178 0 01-5.669-11.89c.172-2.176 1.006-4.2 2.18-6.024zm-6.132 11.04c.985 4.216 3.426 8.016 7.1 10.544 1.846 1.27 3.91 2.012 6.024 2.502-1.247.29-2.486.635-3.65 1.194a17.621 17.621 0 00-6.896 5.906c-1.268 1.845-2.01 3.907-2.502 6.02-.984-4.217-3.426-8.017-7.098-10.545-1.846-1.269-3.91-2.01-6.024-2.5 4.217-.984 8.02-3.426 10.545-7.1 1.268-1.846 2.01-3.908 2.501-6.02zm18.135 16.993c2.177.171 4.2 1.006 6.025 2.18l-1.097 3.095c-1.49-1.133-3.255-1.887-5.183-2.04a9.906 9.906 0 00-8.952 4.272 9.914 9.914 0 00-.778 9.89l6.096 12.782-1.53 4.326-7.495-15.71a13.168 13.168 0 0112.918-18.796zm-34.102.019a13.16 13.16 0 016.424 2.275 13.178 13.178 0 015.669 11.89c-.171 2.176-1.006 4.2-2.18 6.024L40.81 73.03c1.132-1.49 1.887-3.255 2.039-5.183a9.906 9.906 0 00-4.27-8.952 9.914 9.914 0 00-9.89-.777l-12.783 6.095-4.325-1.53 15.71-7.495a13.163 13.163 0 016.704-1.242z" style="font-feature-settings:normal;font-variant-alternates:normal;font-variant-caps:normal;font-variant-east-asian:normal;font-variant-ligatures:normal;font-variant-numeric:normal;font-variant-position:normal;font-variation-settings:normal;inline-size:0;isolation:auto;mix-blend-mode:normal;shape-margin:0;shape-padding:0;text-decoration-color:#000;text-decoration-line:none;text-decoration-style:solid;text-indent:0;text-orientation:mixed;text-transform:none;white-space:normal"/><path d="M36.723 0l-5.722 16.162L37.89 30.6a5.493 5.493 0 01-.432 5.469 5.495 5.495 0 01-4.952 2.362 5.487 5.487 0 01-4.421-2.915L25.73 31.04l-5.153 14.55 1.202.985c2.14 1.753 4.703 2.774 7.38 3.371-1.285.285-2.562.643-3.778 1.223L0 63.28l16.162 5.723 14.437-6.89a5.493 5.493 0 015.468.432 5.495 5.495 0 012.362 4.952 5.487 5.487 0 01-2.915 4.421l-4.475 2.355 14.552 5.154.984-1.203c1.753-2.138 2.775-4.7 3.372-7.375.285 1.283.643 2.559 1.223 3.775l12.11 25.38 5.723-16.162-6.89-14.437a5.493 5.493 0 01.432-5.469 5.493 5.493 0 014.952-2.362 5.487 5.487 0 014.42 2.915l2.356 4.475 5.153-14.551-1.202-.985c-2.138-1.752-4.7-2.774-7.376-3.371 1.284-.285 2.56-.643 3.776-1.223l25.379-12.11L83.842 31l-14.436 6.89a5.493 5.493 0 01-5.469-.432 5.495 5.495 0 01-2.362-4.952 5.487 5.487 0 012.915-4.421l4.475-2.355-14.552-5.154-.984 1.203c-1.753 2.138-2.774 4.7-3.371 7.375-.286-1.283-.644-2.559-1.224-3.775zm13.234 36.87c.975 4.234 3.424 8.05 7.11 10.58 1.86 1.279 3.94 2.024 6.07 2.511-1.264.29-2.518.644-3.697 1.21a17.61 17.61 0 00-6.892 5.898c-1.278 1.858-2.02 3.936-2.509 6.064-.975-4.233-3.424-8.05-7.11-10.58-1.858-1.277-3.937-2.021-6.067-2.509 4.235-.974 8.052-3.422 10.589-7.11 1.277-1.858 2.02-3.935 2.508-6.063z" style="font-feature-settings:normal;font-variant-alternates:normal;font-variant-caps:normal;font-variant-east-asian:normal;font-variant-ligatures:normal;font-variant-numeric:normal;font-variant-position:normal;font-variation-settings:normal;inline-size:0;isolation:auto;mix-blend-mode:normal;shape-margin:0;shape-padding:0;text-decoration-color:#000;text-decoration-line:none;text-decoration-style:solid;text-indent:0;text-orientation:mixed;text-transform:none;white-space:normal"/></g><path d="M37.03 5.771l-3.633 10.26 6.494 13.62a7.697 7.697 2.938 01-.604 7.673 7.697 7.697 2.938 01-6.947 3.313 7.697 7.697 2.938 01-6.207-4.089l-2.947 8.322a15.39 15.39 3.251 008.55 3.441 15.39 15.39 3.251 0013.89-6.627 15.39 15.39 3.251 001.208-15.35zm18.11 17.41a15.39 15.39 3.251 00-3.441 8.55 15.39 15.39 3.251 006.627 13.89 15.39 15.39 3.251 0015.35 1.208l20.56-9.808-10.26-3.633-13.62 6.494a7.697 7.697 2.938 01-7.673-.604 7.697 7.697 2.938 01-3.313-6.947 7.697 7.697 2.938 014.089-6.207zM5.78 62.971l10.26 3.633 13.62-6.494a7.697 7.697 2.938 017.673.604 7.697 7.697 2.938 013.313 6.947 7.697 7.697 2.938 01-4.089 6.207l8.322 2.947a15.39 15.39 3.251 003.441-8.55 15.39 15.39 3.251 00-6.627-13.89 15.39 15.39 3.251 00-15.35-1.208zm54.63-9.811a15.39 15.39 3.251 00-6.025 5.158 15.39 15.39 3.251 00-1.208 15.35l9.808 20.56 3.633-10.26-6.494-13.62a7.697 7.697 2.938 01.604-7.673 7.697 7.697 2.938 016.947-3.314 7.697 7.697 2.938 016.207 4.09l2.947-8.322a15.39 15.39 3.251 00-8.551-3.441 15.39 15.39 3.251 00-7.87 1.468z" fill="url(#a)"/></g></svg>